<?xml version="1.0" encoding="utf-8"?>
<!-- Generator: Adobe Illustrator 18.0.0, SVG Export Plug-In . SVG Version: 6.00 Build 0)  -->
<!DOCTYPE svg PUBLIC "-//W3C//DTD SVG 1.1//EN" "http://www.w3.org/Graphics/SVG/1.1/DTD/svg11.dtd">
<svg version="1.1" id="图层_1" xmlns="http://www.w3.org/2000/svg" xmlns:xlink="http://www.w3.org/1999/xlink" x="0px" y="0px"
	 viewBox="0 0 65.7 68" enable-background="new 0 0 65.7 68" xml:space="preserve">
<g>
	<linearGradient id="SVGID_1_" gradientUnits="userSpaceOnUse" x1="55.8882" y1="19.5984" x2="38.9696" y2="19.5984">
		<stop  offset="0" style="stop-color:#4772F7"/>
		<stop  offset="1" style="stop-color:#58CFFF"/>
	</linearGradient>
	<path fill="url(#SVGID_1_)" d="M39,33.1L49.8,2.9c0,0,11.2,6.6,3.1,33.5L39,33.1z"/>
	<linearGradient id="SVGID_2_" gradientUnits="userSpaceOnUse" x1="62.815" y1="21.2593" x2="54.6969" y2="21.2593">
		<stop  offset="0" style="stop-color:#4772F7"/>
		<stop  offset="1" style="stop-color:#58CFFF"/>
	</linearGradient>
	<path fill="url(#SVGID_2_)" d="M57.3,12.6c0,0,1.3,14.1-2.6,22c0,0,12.3-8.4,6.6-26.6L57.3,12.6z"/>
	<linearGradient id="SVGID_3_" gradientUnits="userSpaceOnUse" x1="33.8847" y1="24.8754" x2="31.9086" y2="24.8754">
		<stop  offset="0" style="stop-color:#4772F7"/>
		<stop  offset="1" style="stop-color:#58CFFF"/>
	</linearGradient>
	<circle fill="url(#SVGID_3_)" cx="32.9" cy="24.9" r="1"/>
	<linearGradient id="SVGID_4_" gradientUnits="userSpaceOnUse" x1="63.6261" y1="42.6199" x2="3.4884" y2="42.6199">
		<stop  offset="0" style="stop-color:#4772F7"/>
		<stop  offset="1" style="stop-color:#58CFFF"/>
	</linearGradient>
	<path fill="url(#SVGID_4_)" d="M3.5,36.7c0,0,5-6.2,18.2-9.6c0,0,6.4-14.2,18.4-3.2c0,0-11.4-4.4-12.6,3c0,0,9.2-0.2,11.4,6.2
		c0,0,19.6-4,24.5,21l0.2,11.2c0,0-14.6,2.4-11.8-14c0,0,3-11.8-11-9.6c0,0-2.6,4.2,7.8,7c0,0-12.4,1.4-18.8-14.2
		C29.7,34.5,23.1,21.7,3.5,36.7z"/>
</g>
</svg>
